<svg width="507" height="197" viewBox="0 0 507 197" fill="none" xmlns="http://www.w3.org/2000/svg">
<g clip-path="url(#clip0)">
<path d="M485.35 25.5769L485.222 20.2883L469.305 20.1865C470.3 38.116 470.3 44.5901 470.3 74.8684C476.264 77.4585 482.834 80.1482 485.421 82.0393L497.856 68.1952C494.375 67.8966 488.505 65.9059 485.222 64.0126C485.222 46.1827 485.222 40.6065 485.421 34.5305L485.35 25.5769Z" fill="#F74700"/>
<path d="M263.755 64.0125L248.832 74.8684C254.797 77.4585 260.872 80.1481 263.457 82.0393L275.892 68.1952C272.411 67.8966 267.038 65.9059 263.755 64.0125Z" fill="#B53A25"/>
<path d="M149.243 31.7414L159.138 18.1982L158.994 18.0964L132.63 29.8502C133.627 41.6019 133.627 51.6615 133.627 71.7829C140.292 73.7736 151.035 77.9562 159.695 82.0394L171.335 68.1953C164.471 67.1999 153.628 64.8089 148.554 61.8206C148.554 49.0714 148.554 42.0001 149.25 31.7392L149.243 31.7414Z" fill="#F74700"/>
<path d="M97.2795 68.3257L95.4194 67.6975C89.9473 66.3041 84.5769 64.5102 80.1011 61.8206C80.1011 49.0714 80.322 41.9757 81.0157 31.7171H81.0533L90.8531 18.3198L90.546 18.0986L64.1842 29.8502C65.1783 41.6019 65.1783 51.6615 65.1783 71.7829C70.7498 73.1763 78.6077 77.9562 85.8692 82.0393C85.8692 82.0393 94.8229 71.3825 97.0122 68.7924L97.2795 68.3257Z" fill="#F74700"/>
<path d="M337.074 70.2987L320.459 68.0072C314.393 66.5142 308.125 64.7204 303.252 61.8317C303.252 49.182 303.252 42.1106 303.948 32.051L304.016 32.0621L315.687 18.0986L287.337 29.8524C288.331 41.6041 288.331 51.6637 288.331 71.7851C293.901 73.1786 304.546 79.0555 308.724 82.0415L337.074 70.2987Z" fill="#F74700"/>
<path d="M454.535 48.4675H442.332H430.197C430.296 42.7897 430.495 37.8108 430.893 31.7347L430.966 31.7569L440.655 18.0986L414.291 29.8524C415.287 41.6041 415.287 51.6637 415.287 71.7851C421.95 73.7758 432.695 77.9584 441.355 82.0415L452.995 68.1974C446.132 67.2021 435.289 64.811 430.215 61.8228V52.8559L442.849 57.837C447.088 54.1852 449.277 52.1945 454.546 48.4742" fill="#F74700"/>
<path d="M17.5229 20.2883L42.093 23.2743L45.4775 6.34246L15.718 3.36307L17.5163 20.379L17.5229 20.2883Z" fill="#B53A25"/>
<path d="M48.7607 88.6152C47.7644 70.6858 47.7644 57.837 47.7644 37.7178C42.1929 36.3244 30.5551 30.4474 26.3776 27.457C26.3776 27.457 20.6625 33.8227 16.9799 37.9302V42.2079C22.2332 43.7961 27.5838 45.685 31.8497 48.5648C31.8497 64.5014 31.8497 72.6742 30.8533 90.5904L48.7607 88.6152Z" fill="#B53A25"/>
<path d="M470.238 74.9701C476.176 77.5448 482.83 80.1614 485.412 82.0481L497.848 68.204C494.558 67.9209 488.728 65.7909 485.37 64.0015L470.238 74.9701Z" fill="#B53A25"/>
<path d="M283.151 163.861L279.816 148.53L262.54 151.479C259.202 142.83 257.728 137.915 255.57 129.267C260.477 126.221 271.078 119.44 275.594 115.706C283.547 117.67 291.595 120.03 298.072 120.03L293.95 136.049C287.667 134.673 278.636 131.233 272.742 128.679L278.335 145.188L293.358 140.57C296.009 148.532 297.776 155.9 299.543 165.343C293.263 169.57 287.47 175.464 283.938 178.614C273.533 176.65 267.84 175.568 256.944 175.568C258.515 168.59 261.362 162.989 264.013 158.758L283.151 163.861Z" fill="#B53A25"/>
<path d="M329.969 117.666H338.607L337.233 127.398H329.676C329.479 135.655 329.479 144.792 329.479 160.813C332.72 162.68 338.02 164.646 341.455 164.94L329.185 178.601C326.634 176.734 320.645 174.08 314.755 171.523C314.755 153.244 314.755 139.386 314.561 127.396H309.848C311.616 123.072 312.499 121.99 314.267 117.664C314.169 113.636 313.973 109.701 313.776 105.87L330.462 107.836C330.268 111.475 330.069 114.62 329.969 117.666Z" fill="#B53A25"/>
<path d="M314.755 171.523C314.755 153.244 314.755 139.386 314.561 127.396H309.848C311.616 123.072 312.499 121.99 314.267 117.664C314.169 113.636 313.973 109.701 313.776 105.87L330.462 107.836C330.268 111.473 330.071 114.618 329.972 117.664H338.609L337.235 127.396H329.678C329.481 135.653 329.481 144.79 329.481 160.811" fill="#F74700"/>
<path d="M264.771 151.094L280.2 144.613L278.342 145.184L272.748 128.674L275.006 116.173C270.221 119.982 260.28 126.347 255.565 129.263C257.724 137.911 259.197 142.826 262.535 151.474L264.771 151.094Z" fill="#F74700"/>
<path d="M283.151 163.861L264.011 158.751C261.36 162.978 258.515 168.579 256.942 175.562C267.837 175.562 273.53 176.643 283.935 178.607C287.421 175.511 293.108 169.724 299.293 165.513L283.151 163.861Z" fill="#F74700"/>
<path d="M244.553 122.444L244.352 145.65C238.981 149.437 236.792 151.43 232.515 155.115L219.881 150.134V159.099C224.962 162.087 235.787 164.478 242.662 165.473L231.022 179.317C222.369 175.234 211.623 171.052 204.954 169.059C204.954 148.931 204.954 138.878 203.96 127.126L230.324 115.374C234.506 118.36 238.383 119.557 244.553 122.444ZM232.016 145.75V133.6C228.435 131.809 225.152 130.504 220.577 129.019C220.179 135.093 219.98 140.079 219.881 145.75H232.016Z" fill="#F74700"/>
<path d="M221.22 129.019L221.205 129.227C225.451 130.634 228.605 131.893 232.016 133.6V145.75H244.213L244.352 145.65L244.553 122.443C238.665 119.69 234.866 118.462 230.9 115.77L221.22 129.019Z" fill="#B53A25"/>
<path d="M183.723 180.304L183.864 180.221C183.667 157.341 183.864 149.35 184.453 124.9H189.761L193.987 113.682H184.749L185.9 104.14C191.896 102.234 196.624 99.0609 201.143 98.3894C200.948 98.2757 189.002 91.0236 186.452 87.7724C183.895 89.9029 175.119 92.7082 169.223 95.6287C169.517 101.349 169.813 107.404 170.01 113.684H169.913L165.686 124.902H170.404C170.459 126.861 170.512 128.739 170.563 130.559H168.586C168.785 144.427 168.785 171.828 168.785 192.968C174.756 195.924 174.071 194.657 176.658 196.818L190.814 183.692C187.328 183.348 187.009 182.74 183.723 180.582V180.304Z" fill="#B53A25"/>
<path d="M185.79 105.799L191.202 102.813L200.826 109.075L207.558 98.7809C207.555 98.7208 207.531 98.5003 207.523 98.4507L188.17 85.8791C182.668 89.3427 172.31 94.0807 167.896 95.9564L185.79 105.799Z" fill="#B53A25"/>
<path d="M184.775 113.707L185.79 105.689L187.999 86.003C186.187 87.519 178.342 91.0204 174.335 93.0721V92.9962L167.792 95.9247C167.989 100.362 168.191 104.915 168.29 109.569C168.226 109.639 168.224 111.32 168.25 113.697H160.726L156.85 124.926H168.447C168.518 128.145 168.58 130.588 168.58 130.588C168.78 144.47 168.78 171.897 168.78 193.057L183.74 180.659V180.384L183.882 180.3C183.685 157.399 183.882 149.399 184.471 124.926H194.02L198.382 113.707H184.775Z" fill="#F74700"/>
<path d="M17.5164 20.379L15.7181 3.36307H15.632C11.0568 7.14979 5.48533 11.5293 0.51253 14.6171C1.50665 32.5465 1.109 61.2323 0.112671 80.0575H17.9206C17.4479 71.0662 17.1033 60.7036 16.9795 50.3499V32.2391L17.5164 20.379Z" fill="#F74700"/>
<path d="M202.716 30.7704C203.118 19.2686 203.158 10.5251 203.565 3.35419L186.654 5.34487C187.648 23.2611 187.451 49.7659 187.451 80.0464H202.579V53.1567L202.716 30.7704Z" fill="#F74700"/>
<path d="M230.92 51.1638C227.54 49.6686 223.758 47.877 220.676 46.2844L228.831 43.1878V25.3668C221.273 22.8762 218.686 21.3855 213.214 18.0964C213.214 18.0964 206.282 25.745 202.793 29.6777L202.769 32.332C207.545 33.2167 209.633 33.6281 213.912 34.8203V40.1067C213.912 41.0998 207.086 46.5498 202.608 50.5312L202.588 52.8935L202.809 53.0682C208.553 55.1562 212.927 56.9434 216.004 58.3347C216.004 63.3158 215.905 76.1624 215.905 80.3472L230.927 82.1388C230.414 74.4725 230.415 59.9294 230.92 51.1638Z" fill="#B53A25"/>
<path d="M149.244 31.7414C155.511 33.8316 159.492 35.4264 164.862 38.7132L173.219 25.1766C167.122 22.321 163.263 21.1178 159.138 18.2047L149.244 31.7414Z" fill="#B53A25"/>
<path d="M111.04 64.0125C110.877 46.2025 110.939 42 110.939 28.355C105.493 26.9902 95.214 21.3522 90.8553 18.3197L81.0422 31.7524L81.0555 31.801C87.1704 32.907 91.0144 34.5725 96.0181 36.7335C96.0181 45.8022 95.7729 53.8622 95.4194 67.6997L97.2795 68.3279L97.0454 68.8477C100.922 75.1979 106.271 80.2543 108.754 82.0415L121.187 68.1974C117.805 67.6975 114.321 65.9059 111.04 64.0125Z" fill="#B53A25"/>
<path d="M248.832 74.8684C248.832 56.344 248.832 42.2986 248.635 30.1466H243.859C245.649 25.7649 246.545 24.67 248.335 20.2883C248.235 16.203 248.037 12.2194 247.838 8.34421L264.749 10.3349C264.552 14.0199 264.351 17.2072 264.252 20.2883H273.004L271.613 30.1466H263.954C263.755 38.5141 263.755 47.7774 263.755 64.0126L248.832 74.8684Z" fill="#F74700"/>
<path d="M303.979 32.1085L304.953 32.2257C310.708 33.3051 316.56 34.7429 321.168 36.7225C321.168 46.0831 321.168 53.4531 320.47 67.9961L337.074 70.2987C336.08 52.3693 336.08 42.0111 336.08 28.366C330.509 26.9703 319.863 21.0934 315.685 18.1074L303.979 32.1085Z" fill="#B53A25"/>
<path d="M367.603 30.0426C368.181 17.2381 367.978 6.86665 368.21 0.370392L352.492 5.35152C352.79 23.2676 352.591 58.14 352.591 71.7872C358.163 73.1807 368.809 79.0576 372.986 82.0436L399.354 70.2986V70.2677L382.687 68.434V68.3964C376.45 67.2905 372.58 65.6095 367.521 63.4241C367.521 58.558 367.521 45.696 367.62 32.3496L367.603 30.0426Z" fill="#F74700"/>
<path d="M399.352 70.2566C398.36 58.5183 398.36 48.4565 398.36 28.355C392.787 26.9593 384.929 22.1795 377.667 18.0964C377.667 18.0964 370.863 26.1608 367.658 30.0029V32.3474C373.315 33.7409 378.779 35.6298 383.444 38.3195C383.444 50.9515 383.21 58.2573 382.691 68.4274L399.352 70.2566Z" fill="#B53A25"/>
<path d="M430.917 31.8343L431.553 32.0355C435.802 33.4423 438.828 34.5217 442.239 36.2381V48.3901L454.529 48.483C454.577 48.4476 454.75 48.3083 454.787 48.2751L454.864 25.1765C448.977 22.4205 444.658 20.7528 440.693 18.0521L430.917 31.8343Z" fill="#B53A25"/>
<path d="M491.282 18.2954L485.511 25.4663L485.37 25.6233V34.4509L486.079 34.8159C489.154 36.1131 492.157 37.5803 495.07 39.2109L507 25.5658C502.323 23.2743 496.155 20.6843 491.282 18.2954Z" fill="#B53A25"/>
<path d="M70.5957 151.886L85.4942 132.058L87.9707 121.526C83.7512 122.99 79.6996 125.412 76.0413 127.608L70.9227 118.982C76.0965 117.518 79.6422 116.107 84.7055 114.193L98.4884 122.194L92.9192 137.739L81.668 149.793C86.9545 149.793 92.3558 149.849 97.2513 149.116L94.4369 157.566H73.8012L70.5957 151.886Z" fill="#677662"/>
<path d="M135.461 121.132C135.461 128.849 135.518 141.923 136.081 152.056L120.048 158.692C117.684 157.002 111.664 153.677 108.514 152.89C108.514 141.51 108.458 128.612 107.895 121.966L123.929 115.33C126.291 117.02 132.31 120.342 135.461 121.132ZM126.686 150.76C127.079 142.536 127.022 131.158 127.022 125.863C124.267 124.68 120.721 123.835 117.291 123.209C116.897 129.066 116.953 140.108 116.953 147.261C119.71 148.902 123.253 149.926 126.686 150.76Z" fill="#677662"/>
<path d="M364.749 151.886L379.658 132.058L382.133 121.526C377.913 122.99 373.864 125.412 370.203 127.608L365.085 118.982C370.261 117.518 373.804 116.107 378.867 114.193L392.65 122.194L387.081 137.739L375.83 149.793C381.119 149.793 386.52 149.849 391.413 149.116L388.601 157.566H367.956L364.749 151.886Z" fill="#677662"/>
<path d="M404.974 158.758C404.974 154.365 404.579 134.142 404.579 126.54L409.587 123.271H402.047L403.512 115.33H413.637L413.018 123.215C413.075 135.551 413.188 152.224 413.637 157.632L404.974 158.758Z" fill="#677662"/>
</g>
<defs>
<clipPath id="clip0">
<rect width="507" height="196.635" fill="white" transform="translate(0 0.182404)"/>
</clipPath>
</defs>
</svg>
