<svg width="49" height="92" viewBox="0 0 49 92" fill="none" xmlns="http://www.w3.org/2000/svg">
<g clip-path="url(#clip0)">
<path d="M46.8814 52.123C46.1369 50.1457 45.0859 48.2978 43.7672 46.6471V8.24697C43.7672 7.71896 43.6322 7.1997 43.3752 6.73845C43.1182 6.27721 42.7477 5.88926 42.2987 5.61136L40.6393 4.59087C35.7945 1.58836 30.2075 -0.00166495 24.5077 -2.92568e-05C18.808 -0.000931628 13.2213 1.58904 8.37611 4.59087L6.71675 5.61136C6.26779 5.88926 5.89723 6.27721 5.64023 6.73845C5.38323 7.1997 5.24829 7.71896 5.24821 8.24697V46.047C5.24263 46.1123 5.24263 46.178 5.24821 46.2434C2.76985 49.3999 1.09391 53.1105 0.364143 57.0568C0.0965766 58.5062 -0.0358667 59.9774 -0.0313841 61.4513C-0.0313841 62.3197 0.167846 62.7733 1.11644 62.6405C2.13418 62.4967 2.33043 62.9834 2.25576 63.9293C1.98353 67.6647 2.6114 71.4108 4.08661 74.8533C4.47656 75.7936 4.87756 76.2168 5.87871 75.6609C6.70838 75.2046 7.09001 75.3318 7.23382 76.4325C7.63206 79.4746 8.75492 82.2928 10.3036 84.9477C10.7323 85.6834 11.1084 85.9461 11.9105 85.4566C13.0167 84.7929 14.2502 83.6451 15.2569 83.7972C16.1446 83.9355 16.753 85.6225 17.5633 86.5628C19.3042 88.5326 21.2991 90.2624 23.4955 91.7068C24.1676 92.1576 24.6018 92.0581 25.2074 91.6515C28.1362 89.6741 30.7386 87.3676 32.6994 84.3974C33.1723 83.6783 33.5429 83.399 34.2869 84.0323C34.7312 84.3608 35.2041 84.6487 35.7 84.8924C37.7438 86.0623 37.7465 86.0623 38.8306 84.0378C40.1799 81.6201 41.061 78.9695 41.4276 76.2251C41.5382 75.3041 41.895 75.2129 42.5504 75.6028C43.7175 76.2942 44.1517 75.7715 44.6024 74.6763C46.0234 71.3133 46.6316 67.6626 46.3779 64.0205C46.306 63.0636 46.3946 62.4607 47.5451 62.6377C48.5379 62.7926 48.6513 62.2285 48.6513 61.4154C48.6223 58.2369 48.0228 55.0895 46.8814 52.123ZM24.8783 62.5714C24.3944 62.9337 24.0486 62.765 23.6587 62.4635C21.6244 60.9506 19.8545 59.1116 18.4207 57.0209C18.1801 56.6586 17.7763 56.2907 18.2713 55.8206C20.9373 53.2846 22.8401 50.2313 24.3556 46.4453C25.8435 50.2313 27.7517 53.2375 30.3708 55.7597C30.769 56.1414 30.6694 56.4539 30.4122 56.8411C28.9097 59.0543 27.0378 60.9926 24.8783 62.5714ZM30.332 69.3001C28.8307 71.165 27.091 72.8247 25.1576 74.2366C24.9032 74.4219 24.6211 74.5713 24.3279 74.7483C24.0514 74.5823 23.8219 74.4551 23.6034 74.2947C21.4337 72.7327 19.5177 70.8457 17.9229 68.6999C17.4804 68.0943 17.4168 67.6435 17.9229 67.0074C18.6602 66.0665 19.3275 65.0728 19.9196 64.0344C20.3123 63.354 20.5779 63.4066 21.1559 63.8463C24.3529 66.2745 24.3916 66.2911 27.478 63.8906C28.2357 63.3015 28.4929 63.4813 28.8801 64.2003C29.3143 65.0079 29.7623 65.8597 30.3956 66.4958C31.4189 67.5273 31.1423 68.31 30.332 69.3001ZM10.0188 30.9773C10.2331 31.891 10.7494 32.7056 11.4841 33.2893C12.2189 33.8731 13.1291 34.1917 14.0676 34.1937H18.9738C19.962 34.1919 20.9174 33.8387 21.6693 33.1973C22.4211 32.5559 22.9204 31.6681 23.0779 30.6925C23.434 30.3937 23.8753 30.2146 24.339 30.1808C24.8185 30.1946 25.2775 30.379 25.6333 30.7008C25.792 31.6746 26.2915 32.5605 27.0427 33.2002C27.7939 33.84 28.748 34.1921 29.7347 34.1937H34.627C35.5693 34.1929 36.4834 33.8724 37.2199 33.2846C37.9564 32.6969 38.4715 31.8766 38.6813 30.958L41.0156 29.8517V43.6797C40.4624 43.1653 39.8844 42.6674 39.2898 42.1862C35.7489 39.3363 31.4456 37.595 26.9193 37.1805H21.9413C16.7724 37.7039 11.9027 39.8535 8.03311 43.3201V30.0813L10.0188 30.9773ZM12.6738 30.0315V27.7195C12.6774 27.3539 12.8242 27.0042 13.0827 26.7456C13.3413 26.4871 13.691 26.3403 14.0566 26.3367H18.9738C19.3416 26.3374 19.6943 26.4828 19.9556 26.7416C20.217 27.0004 20.366 27.3517 20.3703 27.7195V30.0315C20.366 30.3993 20.217 30.7505 19.9556 31.0093C19.6943 31.2681 19.3416 31.4136 18.9738 31.4143H14.0815C13.8978 31.4176 13.7154 31.3843 13.5447 31.3163C13.374 31.2482 13.2186 31.1469 13.0876 31.0182C12.9565 30.8895 12.8524 30.7359 12.7813 30.5665C12.7103 30.3971 12.6738 30.2152 12.6738 30.0315ZM28.3269 30.0315V27.7195C28.3305 27.3539 28.4774 27.0042 28.736 26.7456C28.9945 26.4871 29.3441 26.3403 29.7097 26.3367H34.602C34.9698 26.3374 35.3227 26.4828 35.584 26.7416C35.8454 27.0004 35.9944 27.3517 35.9987 27.7195V30.0315C35.9988 30.2143 35.9626 30.3952 35.8922 30.5639C35.8218 30.7326 35.7188 30.8856 35.5889 31.0142C35.459 31.1428 35.305 31.2443 35.1356 31.313C34.9662 31.3817 34.7848 31.4161 34.602 31.4143H29.7097C29.343 31.4143 28.9914 31.2686 28.7321 31.0093C28.4727 30.75 28.3269 30.3982 28.3269 30.0315ZM39.1929 6.94162L40.4015 7.68831C40.5851 7.80283 40.7365 7.96219 40.8415 8.15136C40.9465 8.34054 41.0016 8.55331 41.0016 8.76967V9.44169H24.3252C24.1687 9.44169 24.0137 9.47253 23.8691 9.53243C23.7244 9.59234 23.593 9.68015 23.4823 9.79083C23.3716 9.90151 23.2839 10.0329 23.224 10.1775C23.1641 10.3221 23.1332 10.4771 23.1332 10.6337V16.8728C21.3394 16.6963 19.673 15.8665 18.451 14.5414C15.6329 11.4993 15.3895 6.33595 15.4089 4.30878C18.3374 3.29559 21.4144 2.77777 24.5132 2.77663C29.6988 2.77119 34.7829 4.21369 39.1929 6.94162ZM9.83911 6.94162C10.748 6.38088 11.6879 5.87212 12.6544 5.41778C12.7512 8.23868 13.3874 13.1227 16.4074 16.4054C18.4318 18.6179 21.1586 19.7242 24.516 19.7242H25.2019C25.2936 19.7242 25.3845 19.706 25.4693 19.6708C25.554 19.6357 25.631 19.584 25.6957 19.519C25.7605 19.454 25.8117 19.3769 25.8466 19.292C25.8814 19.2071 25.8992 19.1162 25.8988 19.0245V12.21H41.0016V27.0115L38.7892 27.9545V27.7305C38.7855 26.629 38.3454 25.5739 37.5652 24.7963C36.785 24.0188 35.7285 23.5821 34.627 23.5821H29.7347C28.6553 23.5866 27.6197 24.0097 26.846 24.7623C26.0722 25.5149 25.6207 26.5383 25.5863 27.6171C25.1484 27.4843 24.6913 27.4255 24.2339 27.4429C23.8591 27.4562 23.4874 27.5166 23.1277 27.6227C23.0996 26.5412 22.6502 25.5136 21.8752 24.7588C21.1003 24.004 20.0611 23.5818 18.9793 23.5821H14.087C12.9868 23.5821 11.9317 24.0192 11.1537 24.7972C10.3757 25.5751 9.93863 26.6303 9.93863 27.7305V27.9047L8.06079 27.0751V8.74752C8.05974 8.54615 8.11 8.34784 8.20677 8.17125C8.30353 7.99465 8.44362 7.8456 8.61391 7.73811L9.83911 6.94162ZM3.24033 59.9219C2.5268 60.0326 2.76464 59.3688 2.81995 58.9153C3.26357 54.9593 4.79528 51.2037 7.24489 48.0659C10.7102 43.6409 15.2651 40.9915 20.7825 39.9682C21.1448 39.9019 21.5209 39.9212 21.8887 39.8576C22.7571 39.7 23.0309 39.9931 22.9037 40.8947C22.0104 47.2943 18.9931 52.4051 13.7081 56.1414C10.6217 58.3151 7.19511 59.5458 3.24033 59.9219ZM7.21451 72.2537C6.42078 72.6381 6.08063 72.616 5.77918 71.6674C4.90526 68.9378 4.83341 66.1611 5.00487 63.3485C5.04359 62.729 5.23992 62.3723 5.94514 62.2423C9.25362 61.6278 12.3926 60.3133 15.1518 58.387C15.3011 58.2819 15.4671 58.199 15.5832 58.1326C15.7061 58.1254 15.8284 58.1543 15.935 58.2157C16.0417 58.2771 16.128 58.3684 16.1833 58.4783C16.4507 58.8471 16.7226 59.2158 16.9991 59.5846C18.4262 61.4734 18.4345 61.479 17.1347 63.5504C14.6927 67.4388 11.3242 70.2625 7.21451 72.2565V72.2537ZM12.7457 81.9332C12.1926 82.2789 11.8689 82.2292 11.5785 81.6014C10.5417 79.3712 9.89724 76.9789 9.67315 74.5298C9.60124 74.1868 9.84456 73.8743 10.3036 73.6171C11.9153 72.7247 13.4147 71.6431 14.77 70.3952C15.2374 69.9583 15.539 69.8974 15.9593 70.4865C16.9398 71.8809 18.0878 73.1497 19.3775 74.2643C19.8671 74.6846 19.881 75.0165 19.5187 75.5282C17.7123 78.0983 15.4069 80.2785 12.7401 81.9388L12.7457 81.9332ZM30.7524 82.5693C29.2562 84.9367 27.2649 86.8284 25.0608 88.5237C24.5215 88.9385 24.1012 88.8832 23.5895 88.4905C21.3694 86.8407 19.4449 84.8264 17.8979 82.5334C17.5965 82.0743 17.4389 81.7037 17.9726 81.2474C19.3673 80.0423 20.5951 78.6565 21.6232 77.1267C21.9634 76.6067 22.334 76.5487 22.7295 76.9386C23.8357 78.0006 24.8949 77.8844 25.979 76.922C26.3469 76.5957 26.6815 76.5763 26.9995 77.0492C28.0749 78.6021 29.3268 80.0248 30.7302 81.2889C30.8841 81.4507 31.0282 81.6215 31.1617 81.8005C31.0096 82.0937 30.8934 82.3426 30.7468 82.5749L30.7524 82.5693ZM39.0491 74.6044C38.6979 77.2096 38.1476 79.3723 37.2045 81.4465C36.809 82.3177 36.3942 82.2347 35.7388 81.806C33.1723 80.1693 30.9521 78.0448 29.2038 75.553C28.8525 75.0414 28.8137 74.7234 29.3115 74.2892C30.5898 73.1633 31.7341 71.8939 32.7215 70.5059C33.1142 69.9527 33.4157 69.8974 33.9079 70.3676C35.2566 71.6217 36.7527 72.7073 38.3633 73.6005C38.9413 73.9407 39.1211 74.3555 39.0409 74.61L39.0491 74.6044ZM43.7258 65.7546C43.8392 67.8011 43.4686 69.7785 42.8961 71.7338C42.6721 72.4998 42.343 72.6436 41.5991 72.2869C36.8754 70.044 33.2138 66.6893 30.722 62.0736C30.4233 61.5205 30.3929 61.0918 30.8437 60.5885C31.5489 59.8058 32.0384 58.5364 32.8819 58.2515C33.789 57.9445 34.6546 59.1614 35.5755 59.6509C37.6221 60.735 39.7378 61.6449 42.0194 62.0266C43.3027 62.2395 43.8834 62.7816 43.7396 64.0924C43.701 64.6502 43.6937 65.2098 43.7175 65.7684L43.7258 65.7546ZM44.7711 59.8252C39.9272 59.2561 35.4179 57.0666 31.975 53.6121C28.5321 50.1576 26.3577 45.6409 25.8048 40.7951C25.6776 39.7359 26.2003 39.7747 26.9111 39.8521C30.9623 40.286 34.7975 41.8974 37.9429 44.4872C42.4397 48.1239 44.9316 52.9139 45.8553 58.5668C46.06 59.8694 45.9576 59.9551 44.7629 59.839L44.7711 59.8252Z" fill="#662924"/>
</g>
<defs>
<clipPath id="clip0">
<rect width="48.6854" height="92" fill="white"/>
</clipPath>
</defs>
</svg>
