<svg width="88" height="83" viewBox="0 0 88 83" fill="none" xmlns="http://www.w3.org/2000/svg">
<path d="M44 0C19.7047 0 0 19.0514 0 42.5491C0 61.3488 12.606 77.2976 30.0923 82.9247C32.2887 83.3183 33 81.9993 33 80.8788V72.9576C20.7607 75.5318 18.2123 67.9368 18.2123 67.9368C16.2103 63.0188 13.3247 61.7104 13.3247 61.7104C9.33167 59.0688 13.629 59.1256 13.629 59.1256C18.0473 59.4234 20.372 63.5117 20.372 63.5117C24.2953 70.0146 30.6643 68.1353 33.176 67.0468C33.5683 64.2988 34.7087 62.4196 35.97 61.3594C26.1983 60.2779 15.9243 56.6293 15.9243 40.3295C15.9243 35.681 17.644 31.887 20.4563 28.9086C20.0017 27.8342 18.4947 23.5049 20.8853 17.6473C20.8853 17.6473 24.5813 16.5055 32.989 22.0085C36.498 21.0654 40.26 20.5938 44 20.5761C47.74 20.5938 51.5057 21.0654 55.022 22.0085C63.4223 16.5055 67.111 17.6473 67.111 17.6473C69.5053 23.5084 67.9983 27.8378 67.5437 28.9086C70.367 31.887 72.072 35.6845 72.072 40.3295C72.072 56.6719 61.7797 60.2708 51.9823 61.3239C53.559 62.643 55 65.2314 55 69.2026V80.8788C55 82.0099 55.704 83.3396 57.937 82.9212C75.4087 77.287 88 61.3417 88 42.5491C88 19.0514 68.299 0 44 0Z" fill="#662924"/>
</svg>
